<svg viewBox="0 0 511 101.4" xmlns="http://www.w3.org/2000/svg">
    <path d="m104.4.8c-11.3 6.6-43 33.7-46.9 37-3.8-3.3-35.6-30.4-46.9-37-4.1-2.4-10.6.9-10.6 5.9v87.6c0 6.7 8.6 8.3 12.4 6.2 8.2-4.7 36.8-29.9 33.9-33.7-.4-.6-.8-1.1-1.4-1.7-3.3-3.1-29.2 14.9-29.2 14.9v-57s25.9 25 37.1 29.2c.9.3 2.3.6 3.8.6h1.8c1.5-.1 2.9-.3 3.8-.6 11.3-4.2 37.2-29.2 37.2-29.2v57s-25.9-17.9-29.1-14.8c-.6.6-1.1 1.1-1.4 1.7-2.9 3.7 25.7 29 33.9 33.7 3.7 2.1 12.4.5 12.4-6.2v-87.6c-.1-5.1-6.6-8.4-10.8-6z"
          fill="#95cebc"></path>
    <path d="m195.9 22.5c.8.8 1.2 1.8 1.2 2.9v53.1c0 1.2-.4 2.2-1.2 3s-1.8 1.2-3.1 1.2-2.3-.4-3.2-1.2c-.8-.8-1.2-1.8-1.2-3v-40.6l-17 25.8c-.4.5-.9 1-1.5 1.3-.6.4-1.2.5-1.9.4-.6.1-1.2-.1-1.8-.4-.6-.4-1.1-.8-1.5-1.3l-17.1-26.6v41.4c0 1.2-.4 2.2-1.1 3s-1.7 1.2-2.9 1.2-2.1-.4-2.9-1.2c-.7-.8-1.1-1.8-1.1-3v-53.1c0-1.1.4-2.1 1.2-2.9s1.8-1.3 3.1-1.3c.7 0 1.4.2 2.1.5.7.4 1.2.8 1.6 1.4l20.8 31.5 21.1-31.5c.9-1.3 2.1-1.9 3.5-1.9 1.1.1 2.1.5 2.9 1.3zm51.1 14.8c.8.8 1.2 1.8 1.2 3.1v38.1c0 1.2-.4 2.2-1.2 3s-1.8 1.2-3 1.2-2.2-.4-3-1.2-1.1-1.8-1.1-3v-2.3c-1.5 2-3.6 3.8-6.2 5.2s-5.5 2.2-8.5 2.2c-4 0-7.6-1-10.8-3.1-3.2-2-5.8-4.9-7.6-8.6s-2.8-7.8-2.8-12.3c0-4.6.9-8.7 2.8-12.3 1.8-3.7 4.4-6.5 7.6-8.6 3.2-2 6.8-3.1 10.6-3.1 3.1 0 6 .6 8.6 1.9 2.7 1.3 4.8 2.9 6.4 4.9v-2.1c0-1.2.4-2.3 1.1-3.1.8-.8 1.8-1.2 3-1.2 1.1.1 2.1.5 2.9 1.3zm-13.6 36.5c2.1-1.4 3.8-3.3 5-5.8s1.8-5.2 1.8-8.3c0-3-.6-5.8-1.8-8.3s-2.9-4.4-5-5.8-4.6-2.2-7.3-2.2c-2.8 0-5.2.7-7.3 2.1s-3.8 3.3-5 5.8-1.8 5.2-1.8 8.3.6 5.9 1.8 8.3c1.2 2.5 2.9 4.4 5 5.8s4.6 2.1 7.3 2.1c2.7.1 5.2-.6 7.3-2zm24.2-44.2c-.7-.6-1.1-1.6-1.1-2.9v-1.4c0-1.4.4-2.4 1.2-3s2-.9 3.6-.9 2.8.3 3.6.9c.7.6 1.1 1.6 1.1 2.9v1.4c0 1.4-.4 2.4-1.1 3-.8.6-2 .9-3.6.9-1.8 0-3-.3-3.7-.9zm6.6 51.9c-.8.8-1.8 1.2-3 1.2s-2.2-.4-2.9-1.2c-.8-.8-1.2-1.8-1.2-3v-38c0-1.2.4-2.2 1.2-3s1.8-1.2 2.9-1.2c1.2 0 2.2.4 3 1.2s1.2 1.8 1.2 3v38c0 1.2-.4 2.2-1.2 3zm18 0c-.8.8-1.8 1.2-3 1.2s-2.2-.4-2.9-1.2c-.8-.8-1.2-1.8-1.2-3v-56.5c0-1.2.4-2.2 1.2-3s1.8-1.2 3-1.2 2.2.4 2.9 1.2c.8.8 1.2 1.8 1.2 3v56.5c0 1.2-.4 2.2-1.2 3zm44.3-42.7c3.2 2 5.8 4.9 7.6 8.5s2.8 7.7 2.8 12.3-.9 8.7-2.8 12.4c-1.8 3.7-4.4 6.6-7.6 8.6s-6.8 3.1-10.6 3.1c-3 0-5.9-.7-8.5-2s-4.8-3-6.4-5v2.5c0 1.2-.4 2.2-1.2 3s-1.8 1.2-3 1.2-2.2-.4-2.9-1.2c-.8-.8-1.2-1.8-1.2-3v-57.2c0-1.2.4-2.2 1.1-3 .8-.8 1.8-1.2 3-1.2s2.2.4 3 1.2 1.2 1.8 1.2 3v21.4c1.4-2.1 3.5-3.9 6.1-5.4 2.7-1.5 5.6-2.3 8.6-2.3 4 0 7.6 1 10.8 3.1zm-4.4 35c2.2-1.4 3.8-3.4 5-5.9s1.8-5.3 1.8-8.3-.6-5.8-1.8-8.3-2.9-4.4-5-5.8c-2.2-1.4-4.6-2.1-7.3-2.1-2.8 0-5.2.7-7.4 2.1s-3.8 3.3-5 5.8c-1.2 2.4-1.8 5.2-1.8 8.3s.6 5.9 1.8 8.3c1.2 2.5 2.9 4.4 5 5.8 2.2 1.4 4.6 2.2 7.4 2.2 2.7 0 5.1-.7 7.3-2.1zm57.8-35.8c.8.8 1.2 1.8 1.2 3v23.4c0 6.1-1.7 10.8-5 14.2-3.4 3.4-8.1 5-14.3 5-6.1 0-10.8-1.7-14.1-5-3.3-3.4-5-8.1-5-14.2v-23.4c0-1.2.4-2.2 1.2-3s1.8-1.2 2.9-1.2c1.2 0 2.2.4 3 1.2s1.2 1.8 1.2 3v23.4c0 7.7 3.6 11.5 10.8 11.5 3.6 0 6.3-1 8.2-2.9s2.8-4.8 2.8-8.6v-23.4c0-1.2.4-2.2 1.2-3s1.8-1.2 2.9-1.2c1.2 0 2.2.4 3 1.2zm22.1 6.9v26.2c0 2.9 1.3 4.4 4 4.4.4 0 1-.1 1.7-.3s1.3-.3 1.7-.3c.8 0 1.4.3 1.9 1 .5.6.8 1.5.8 2.5 0 1.2-.7 2.3-2.1 3.2s-3 1.3-4.7 1.3c-1.9 0-3.7-.2-5.3-.6s-3-1.4-4.3-3.1-1.9-4.2-1.9-7.6v-26.7h-5.1c-1.1 0-2-.4-2.8-1.1-.7-.7-1.1-1.7-1.1-2.8s.4-2 1.1-2.7 1.7-1.1 2.8-1.1h5.1v-7.4c0-1.2.4-2.2 1.2-3s1.8-1.2 3-1.2 2.2.4 2.9 1.2c.8.8 1.2 1.8 1.2 3v7.4h7.3c1.1 0 2 .4 2.8 1.1.7.7 1.1 1.7 1.1 2.8s-.4 2-1.1 2.7-1.7 1.1-2.8 1.1zm24.8 36.6c-.8.8-1.8 1.2-3 1.2s-2.2-.4-2.9-1.2c-.8-.8-1.2-1.8-1.2-3v-56.5c0-1.2.4-2.2 1.2-3s1.8-1.2 3-1.2 2.2.4 2.9 1.2c.8.8 1.2 1.8 1.2 3v56.5c0 1.2-.4 2.2-1.2 3zm48.6-20.8c-.8.7-1.8 1.1-2.9 1.1h-30.9c.4 4.3 2 7.7 4.9 10.3 2.8 2.6 6.3 3.9 10.4 3.9 2.8 0 5.1-.4 6.8-1.2 1.8-.8 3.3-1.9 4.7-3.2.9-.5 1.7-.8 2.5-.8 1 0 1.8.4 2.5 1.1s1 1.5 1 2.5c0 1.2-.6 2.3-1.8 3.3-1.7 1.7-4 3.1-6.8 4.3s-5.7 1.8-8.6 1.8c-4.7 0-8.9-1-12.5-3s-6.4-4.8-8.3-8.3c-2-3.6-2.9-7.6-2.9-12.1 0-4.9 1-9.2 3-13 2-3.7 4.7-6.6 8-8.6s6.9-3 10.7-3c3.7 0 7.3 1 10.5 2.9 3.3 1.9 5.9 4.6 7.9 8s3 7.2 3.1 11.4c0 1-.4 1.9-1.3 2.6zm-28.7-14.5c-2.4 1.8-4 4.7-4.7 8.6h25.9v-.7c-.3-3.1-1.7-5.6-4.2-7.6s-5.3-3-8.5-3c-3.2-.1-6.1.9-8.5 2.7zm62.6-9.3c1.1.8 1.7 1.8 1.7 2.9 0 1.4-.4 2.5-1.1 3.2s-1.6 1.1-2.7 1.1c-.5 0-1.3-.2-2.4-.5-1.2-.4-2.2-.6-2.9-.6-1.8 0-3.6.6-5.3 1.9s-3.1 3-4.2 5.2-1.6 4.6-1.6 7.3v21.2c0 1.2-.4 2.2-1.2 3s-1.8 1.2-3 1.2-2.2-.4-3-1.2-1.1-1.8-1.1-3v-37.6c0-1.2.4-2.2 1.2-3s1.8-1.2 2.9-1.2c1.2 0 2.2.4 3 1.2s1.2 1.8 1.2 3v4.5c1.3-2.9 3.2-5.2 5.8-7s5.5-2.7 8.8-2.8c1.5 0 2.8.4 3.9 1.2z"></path>
</svg>